<svg width="64" height="64" viewBox="0 0 24 24" fill="none" xmlns="http://www.w3.org/2000/svg">
  <path d="M12 2C6.48 2 2 6.58 2 12.24C2 16.77 4.87 20.61 8.84 21.96C9.34 22.06 9.52 21.74 9.52 21.47C9.52 21.22 9.51 20.43 9.51 19.59C7 20.15 6.47 18.48 6.47 18.48C6.06 17.41 5.45 17.12 5.45 17.12C4.62 16.53 5.51 16.54 5.51 16.54C6.43 16.61 6.91 17.5 6.91 17.5C7.73 18.95 9.06 18.53 9.58 18.27C9.66 17.66 9.9 17.24 10.16 17C8.16 16.77 6.06 15.96 6.06 12.35C6.06 11.32 6.42 10.48 7.01 9.81C6.92 9.57 6.58 8.61 7.1 7.31C7.1 7.31 7.9 7.05 9.5 8.17C10.26 7.95 11.08 7.84 11.9 7.83C12.72 7.84 13.54 7.95 14.3 8.17C15.9 7.05 16.7 7.31 16.7 7.31C17.22 8.61 16.88 9.57 16.79 9.81C17.38 10.48 17.74 11.32 17.74 12.35C17.74 15.97 15.64 16.77 13.64 17C13.96 17.29 14.24 17.86 14.24 18.74C14.24 20 14.23 21.07 14.23 21.47C14.23 21.74 14.41 22.06 14.91 21.96C18.88 20.61 21.75 16.77 21.75 12.24C21.75 6.58 17.27 2 11.75 2H12Z" fill="white"/>
</svg>
