<svg width="64" height="64" viewBox="0 0 24 24" fill="none" xmlns="http://www.w3.org/2000/svg">
  <rect x="2" y="2" width="20" height="20" rx="4" fill="#0A66C2"/>
  <path d="M7.3 9.4H9.8V17H7.3V9.4ZM8.55 8.35C7.75 8.35 7.1 7.7 7.1 6.9C7.1 6.1 7.75 5.45 8.55 5.45C9.35 5.45 10 6.1 10 6.9C10 7.7 9.35 8.35 8.55 8.35Z" fill="white"/>
  <path d="M11.2 9.4H13.6V10.44H13.64C13.97 9.81 14.79 9.14 16 9.14C18.5 9.14 19 10.78 19 12.92V17H16.5V13.38C16.5 12.52 16.48 11.42 15.3 11.42C14.1 11.42 13.9 12.36 13.9 13.31V17H11.2V9.4Z" fill="white"/>
</svg>
